<svg xmlns="http://www.w3.org/2000/svg" xmlns:xlink="http://www.w3.org/1999/xlink" fill="none" version="1.1" width="24" height="24" viewBox="0 0 24 24"><defs><clipPath id="master_svg0_1027_32158"><rect x="0" y="0" width="24" height="24" rx="0"/></clipPath></defs><g clip-path="url(#master_svg0_1027_32158)"><g transform="matrix(0.10000000149011612,0,0,-0.10000000149011612,0.40155973367962616,25.081262241007607)"><g><path d="M44.13442876385498,240.8440674609375C45.36442876385498,242.5240774609375,46.83442976385498,244.2040674609375,47.34442776385498,244.5340774609375C48.27442876385498,245.1040674609375,48.63442876385498,245.1340774609375,53.43442776385498,244.9840674609375C56.25442776385498,244.8640774609375,65.97442876385497,244.5340774609375,75.03442676385498,244.2040674609375C84.12443076385497,243.8740674609375,95.46442676385497,243.4840674609375,100.23443176385499,243.3040774609375C131.31441576385498,242.1940774609375,132.60441576385497,242.1340774609375,133.38442576385498,241.5640674609375C134.524425763855,240.7240774609375,134.58442576385497,238.7740774609375,133.53441576385498,237.7240774609375L132.75441576385498,236.9440774609375L128.494425763855,237.1240674609375C124.08442576385498,237.3040774609375,119.55442576385498,237.4840674609375,111.33442576385498,237.7540774609375C108.69442576385498,237.8440674609375,103.08442576385498,238.0540774609375,98.88442476385498,238.2040674609375C94.68442776385498,238.3540674609375,88.86442876385497,238.5640674609375,85.98443176385499,238.6540674609375C83.10442676385497,238.7440774609375,77.76442976385498,238.9540674609375,74.13443276385497,239.1040674609375C64.32443176385499,239.5240774609375,54.84442776385498,239.8540674609375,53.01442976385498,239.8540674609375L51.42442976385498,239.8540674609375L51.48442776385498,233.4040674609375C51.48442776385498,229.8640774609375,51.57442776385498,226.3540774609375,51.63442876385498,225.6040774609375C51.69443076385498,224.8540774609375,51.81442976385498,219.0340774609375,51.93442776385498,212.6740674609375C52.10208376385498,202.3512074609375,52.13588976385498,200.2697774609375,51.13514576385498,199.0104374609375C50.88239976385498,198.6923874609375,50.56366276385498,198.4267774609375,50.16442776385498,198.0940674609375C49.53443076385498,197.5840774609375,48.54442876385498,197.0440674609375,47.94443076385498,196.8640774609375C47.34442776385498,196.6840674609375,43.59442776385498,196.3840774609375,39.63442876385498,196.2340674609375C35.67442976385498,196.0540774609375,31.29442876385498,195.8440674609375,29.88443276385498,195.7540774609375C28.47442876385498,195.6940774609375,25.53443076385498,195.5440674609375,23.37443076385498,195.4240674609375L19.38443276385498,195.2440774609375L19.38443276385498,193.8340774609375C19.38443276385498,193.0840774609375,19.29442876385498,190.3540774609375,19.23443176385498,187.8040774609375C19.05443076385498,182.9740774609375,18.48443176385498,153.3340774609375,18.48443176385498,149.9740774609375L18.48443176385498,148.0540774609375L86.19443076385498,148.1440774609375C133.714415763855,148.2040674609375,154.684415763855,148.1140774609375,156.45441576385497,147.90407746093751C161.16440576385497,147.2740674609375,165.214415763855,145.2040674609375,168.54441576385497,141.6640774609375C170.61442576385497,139.4440774609375,171.69440576385497,137.6440774609375,172.92441576385497,134.3440774609375L173.73441576385497,132.15407746093751L173.82441576385497,96.9040754609375C173.90055576385498,63.5053714609375,173.976695763855,59.7992824609375,172.63614576385498,56.7074354609375C172.39205576385498,56.1444664609375,172.10099576385497,55.6018604609375,171.75441576385498,54.9040834609375C171.09441576385498,53.614082460937496,170.04441576385497,51.9040834609375,169.38440576385497,51.124084460937496C168.72442576385498,50.344078460937496,168.24440576385499,49.6540834609375,168.274405763855,49.6540834609375C168.48441576385497,49.5340804609375,184.74440576385499,50.4340824609375,185.70441576385497,50.614082460937496C187.834405763855,51.0340804609375,187.95441576385497,51.4240794609375,188.16440576385497,59.1040804609375C188.61442576385497,75.6040804609375,188.76441576385497,103.1740724609375,188.76441576385497,156.9040674609375C188.76441576385497,218.3740674609375,188.644415763855,234.3640774609375,188.13440576385497,234.8740674609375C187.95441576385497,235.0540774609375,186.12441576385498,235.4740774609375,184.084405763855,235.8040774609375C181.86442576385497,236.1940774609375,180.03441576385498,236.6440774609375,179.61442576385497,236.9740774609375C178.65441576385498,237.6640774609375,178.35441576385497,238.7740774609375,178.86442576385497,239.9440774609375C179.464415763855,241.4140774609375,180.36442576385497,241.6840674609375,183.274405763855,241.2340674609375C189.934415763855,240.1840674609375,191.67441576385497,239.4640674609375,192.84441576385498,237.2140674609375C193.44440576385497,236.0140674609375,193.50441576385498,235.4440774609375,193.684415763855,226.4440774609375C193.774405763855,221.1940774609375,193.95441576385497,216.8440674609375,194.07441576385497,216.7240774609375C194.16440576385497,216.6040774609375,196.114405763855,216.3940774609375,198.394415763855,216.2440774609375C209.37441576385498,215.5240774609375,215.434415763855,214.8640774609375,216.78440576385498,214.2940674609375C218.434415763855,213.5440674609375,220.41440576385497,211.6540674609375,221.34441576385498,209.9440774609375L222.03440576385498,208.6540674609375L222.12441576385498,125.2540774609375C222.202875763855,43.5263844609375,222.37252576385498,39.3611434609375,220.72533576385499,36.1189214609375C220.483045763855,35.6419844609375,220.20142576385499,35.1850194609375,219.87441576385498,34.5040744609375C218.73441576385497,32.1340789609375,218.10441576385497,31.2640838609375,215.91440576385497,29.1040801609375C213.78440576385498,26.9440765609375,212.85441576385497,26.2540740609375,210.48441576385497,25.0840759609375C209.85602576385497,24.7755259609375,209.423505763855,24.5085081609375,208.97254576385498,24.2774582609375C205.828135763855,22.6664048009375,201.787755763855,22.8040771484375,124.20441576385498,22.8040771484375C46.32442776385498,22.8040771484375,44.94443076385498,22.8040771484375,42.66442776385498,23.4040832509375C33.96443076385498,25.6240844609375,27.96443076385498,33.3040774609375,27.42442976385498,42.9040834609375L27.33442976385498,44.2540814609375L22.08442976385498,44.4340824609375C16.32443176385498,44.614082460937496,14.854433763854981,44.8840794609375,11.73443176385498,46.3840794609375C6.574431463854981,48.8140794609375,2.1044339638549805,54.5140834609375,0.9344358438549805,60.1540834609375C0.3044309638549805,63.2140804609375,0.27443218385498047,128.4340774609375,0.9044370638549805,131.7640774609375C2.074435263854981,137.8540774609375,5.824435263854981,142.9840774609375,11.07443176385498,145.6840774609375L13.38443276385498,146.8540774609375L13.38443276385498,149.8540774609375C13.38443276385498,152.5540774609375,13.53443476385498,160.5040774609375,14.16443176385498,189.7540774609375C14.344431763854981,198.4840674609375,14.374430763854981,199.1140774609375,14.974432763854981,200.1040774609375C15.54443276385498,201.0340774609375,26.85442976385498,216.9340674609375,29.58442976385498,220.6540674609375C30.18442776385498,221.4940774609375,31.89443076385498,223.8340774609375,33.36442876385498,225.9040674609375C37.71443076385498,231.9340674609375,41.73443176385498,237.5140674609375,44.13442876385498,240.8440674609375ZM203.73441576385497,210.7540774609375C202.92441576385497,210.8140674609375,200.614405763855,210.9640674609375,198.63440576385497,211.0540774609375C196.65441576385498,211.1740674609375,194.76441576385497,211.3240674609375,194.464415763855,211.4140774609375C193.92441576385497,211.5640674609375,193.894415763855,210.9040674609375,194.10441576385497,182.3740674609375C194.40441576385498,141.1840774609375,193.714415763855,55.1140744609375,193.054405763855,51.7540814609375C192.48441576385497,48.9040834609375,190.62441576385498,46.6840824609375,188.04441576385497,45.7840804609375C187.35441576385497,45.5440824609375,184.804405763855,45.2740784609375,181.804405763855,45.1540834609375C179.01441576385497,45.0340804609375,176.13440576385497,44.8840794609375,175.38440576385497,44.7640834609375C174.63440576385497,44.6740794609375,142.20441576385497,44.5540774609375,103.29442576385497,44.4940794609375L32.58442976385498,44.374084460937496L32.58442976385498,43.114082460937496C32.58442976385498,41.0140834609375,33.39443076385498,37.8940734609375,34.44443076385498,35.9140774609375C35.76442976385498,33.3940734609375,38.55443076385498,30.6340789609375,40.98443176385498,29.4640807609375C41.39858876385498,29.2616042609375,41.71486576385498,29.0807747609375,42.04076676385498,28.9193777609375C44.90181276385498,27.5024914609375,48.50455776385498,27.5832843609375,125.58442576385498,27.664077760937502L203.434415763855,27.754074060937498L205.774405763855,28.594085660937502C211.44440576385497,30.6040801609375,215.28440576385498,34.8040774609375,216.63440576385497,40.5340884609375C217.024405763855,42.214080460937495,217.084405763855,52.4140774609375,217.084405763855,125.0140774609375L217.084405763855,207.5440674609375L216.304405763855,208.4740774609375C215.34441576385498,209.6140774609375,214.35441576385497,209.8840774609375,209.28441576385498,210.3040774609375C207.06441576385498,210.4540674609375,204.57441576385497,210.6640774609375,203.73441576385497,210.7540774609375ZM168.36442576385497,131.1340674609375C167.10441576385497,137.0140774609375,162.274405763855,141.7240774609375,156.36442576385497,142.7740674609375C155.10441576385497,143.0140774609375,134.10441576385497,143.1040774609375,87.06443276385498,143.0740774609375C49.92442976385498,143.0440774609375,19.14443076385498,142.9540674609375,18.63443276385498,142.8940774609375C12.964430763854981,142.1440774609375,8.254431763854981,138.12407746093749,6.304430963854981,132.3040774609375C5.764430063854981,130.74406746093752,5.73443126385498,129.00407746093748,5.73443126385498,96.1540754609375L5.73443126385498,61.6540834609375L6.42443366385498,59.7340854609375C8.19443036385498,54.8140794609375,11.73443176385498,51.454078460937495,16.65442976385498,49.9840774609375C18.15442976385498,49.5340804609375,24.69443076385498,49.5040814609375,87.30443076385498,49.5040814609375C146.19442576385498,49.5040814609375,156.57441576385497,49.5640794609375,157.95441576385497,49.954078460937495C163.26441576385497,51.364082460937496,166.894415763855,55.1440814609375,168.33442576385497,60.7540814609375C168.99440576385499,63.3040774609375,168.99440576385499,128.0440774609375,168.36442576385497,131.1340674609375ZM96.45455476385499,121.5736694609375C94.98455376385498,121.3936764609375,94.83455976385498,121.0936734609375,89.58455976385498,107.5636744609375C81.96455676385499,87.9136734609375,80.04455876385498,82.99367546093751,78.03455676385498,77.8636784609375C76.80455276385499,74.7136764609375,75.78455676385498,71.74367546093751,75.78455676385498,71.2336734609375C75.78455676385498,69.6136784609375,77.67455576385498,68.4736704609375,79.38455476385498,69.0436704609375C80.31455476385499,69.3736724609375,80.46455676385499,69.6436764609375,83.43455776385498,77.4136734609375C84.36455776385498,79.8136744609375,85.98455376385498,84.0736774609375,87.09455376385498,86.8636784609375C88.17455576385498,89.6836704609375,89.49455576385498,93.1036754609375,90.03455676385498,94.5136714609375C93.54455876385498,103.5736694609375,96.72455876385499,111.6736754609375,97.98455376385498,114.9136734609375C98.82455776385498,116.9836734609375,99.48455376385498,118.9636684609375,99.48455376385498,119.3236694609375C99.48455376385498,120.0736694609375,98.46455676385499,121.3936764609375,97.77455376385498,121.5436704609375C97.47455876385499,121.6336744609375,96.87455276385498,121.6336744609375,96.45455476385499,121.5736694609375ZM49.95514176385498,109.3592374609375C44.76514376385498,105.6392444609375,39.27514176385498,101.7092434609375,37.74514276385498,100.6292414609375C34.95514176385498,98.6492464609375,34.38514276385498,97.9292454609375,34.38514276385498,96.3392414609375C34.38514276385498,95.1692424609375,35.19514376385498,94.2392424609375,38.04514176385498,92.1992414609375C46.26514376385498,86.28924546093751,50.52514176385498,83.22924046093749,53.58513976385498,81.0092464609375C60.54514176385498,75.9392394609375,60.75514076385498,75.8492434609375,62.31514276385498,77.3792414609375C63.39514476385498,78.4592434609375,63.45514176385498,79.7192454609375,62.52514176385498,80.7392424609375C62.13514276385498,81.1292414609375,59.82514076385498,82.89924646093749,57.33513976385498,84.6692424609375C54.87513976385498,86.4392394609375,51.15514276385498,89.1392444609375,49.08514276385498,90.6092454609375C47.01514376385498,92.1092454609375,44.34514176385498,94.0292434609375,43.17514276385498,94.8692474609375C41.97514276385498,95.7092434609375,40.98514076385498,96.4292454609375,40.98514076385498,96.4892424609375C40.98514076385498,96.5192414609375,45.21514376385498,99.5792384609375,50.37513976385498,103.2392424609375C63.03514376385498,112.2692414609375,62.85514376385498,112.1192474609375,63.06514276385498,112.9592434609375C63.30514076385498,113.8892444609375,62.70514176385498,115.4192424609375,61.95514176385498,115.8092424609375C61.65513876385498,115.9892424609375,60.96514376385498,116.1092374609375,60.39514476385498,116.1092374609375C59.55514076385498,116.1092374609375,57.84514176385498,114.9992374609375,49.95514176385498,109.3592374609375ZM113.73438576385497,115.3539504609375C112.95438576385499,114.6039504609375,112.77439576385498,113.4639514609375,113.28438576385498,112.5339504609375C113.43438576385498,112.2339474609375,116.37438576385497,109.9839474609375,119.79438576385498,107.5239484609375C123.21438576385498,105.0939484609375,127.05439576385498,102.3339464609375,128.314385763855,101.4339444609375C129.574385763855,100.5039524609375,131.58439576385499,99.0939484609375,132.72439576385497,98.2539524609375C133.89438576385498,97.4439464609375,134.854375763855,96.6639484609375,134.88439576385497,96.5439454609375C134.88439576385497,96.2739484609375,133.74439576385498,95.4339444609375,123.18438576385498,87.8439484609375C118.65439576385498,84.5739444609375,114.57438576385498,81.6039504609375,114.12438576385497,81.2139514609375C111.90439576385498,79.2939454609375,113.28438576385498,75.9639514609375,115.95438576385499,76.7139514609375C116.55439576385498,76.8639454609375,119.73438576385497,78.9339444609375,123.03438576385498,81.30394746093751C126.33439576385499,83.6739504609375,131.46439576385498,87.3639454609375,134.43439576385498,89.4939494609375C137.40439576385498,91.6239474609375,140.28438576385497,93.8139494609375,140.824385763855,94.3839494609375C141.87439576385498,95.4639514609375,142.08439576385499,96.7839504609375,141.39438576385498,98.0139464609375C141.18439576385498,98.3739474609375,138.66439576385497,100.3539504609375,135.78438576385497,102.4539494609375C132.90439576385498,104.5239484609375,129.93439576385498,106.6839444609375,129.18439576385498,107.2239534609375C128.43438576385498,107.7639464609375,126.90439576385498,108.8739474609375,125.73438576385497,109.6839444609375C124.59438576385499,110.4939494609375,122.10438576385498,112.2639464609375,120.24439576385498,113.6139524609375C117.33439576385499,115.7439494609375,116.64438576385498,116.1039504609375,115.65439576385498,116.1039504609375C114.78438576385498,116.1039504609375,114.24439576385498,115.8939514609375,113.73438576385497,115.3539504609375ZM160.47387576385498,239.5002874609375C160.143865763855,239.3802774609375,132.87386576385498,210.5202974609375,118.23386576385498,194.8602874609375C116.25387576385498,192.7302874609375,112.50387576385498,188.7402974609375,109.95386576385498,186.0102874609375C107.43387576385499,183.2802874609375,104.37387576385498,180.0102874609375,103.20386576385498,178.7202874609375L101.04387576385498,176.3502974609375L98.28386976385498,179.6202874609375C96.78386976385498,181.3902874609375,94.89387076385498,183.6102874609375,94.11387176385497,184.5102874609375C92.19387376385498,186.7302874609375,86.04387176385498,194.1102874609375,79.56386876385498,201.8502974609375C76.62387376385497,205.3902874609375,73.89387076385498,208.3602874609375,73.50387076385498,208.5402874609375C71.91387476385498,209.1102874609375,70.08387276385498,207.8202774609375,70.08387276385498,206.1102874609375C70.08387276385498,205.1202874609375,70.35386976385497,204.7602874609375,76.98387476385498,196.9302974609375C82.44387376385498,190.4502874609375,87.63387576385497,184.3002974609375,94.92386876385498,175.6002974609375C97.26387276385498,172.7802874609375,99.39387076385498,170.3802974609375,99.66387476385498,170.2902974609375C100.47387576385498,169.9902974609375,102.03386576385498,170.0802874609375,102.51387576385498,170.5002874609375C103.02387576385497,170.8902874609375,106.11387576385498,174.1602974609375,111.48386576385498,179.9802874609375C121.74387576385499,191.0802874609375,154.893865763855,226.3902874609375,160.44387576385498,232.1202874609375C163.923865763855,235.6902774609375,164.28386576385498,236.1702874609375,164.28386576385498,237.1602774609375C164.28386576385498,239.0502974609375,162.303875763855,240.2502874609375,160.47387576385498,239.5002874609375ZM46.65442976385498,201.7540774609375C46.98442776385498,201.8740674609375,47.01442976385498,203.9440774609375,46.83442976385498,213.8440674609375C46.71443076385498,220.3840774609375,46.53443076385498,227.8240674609375,46.41442776385498,230.3440674609375L46.23442776385498,234.9640674609375L44.64443076385498,232.7440774609375C42.54442876385498,229.8640774609375,40.65442976385498,227.2240774609375,34.32443176385498,218.4040674609375C24.51442976385498,204.7240774609375,21.54442876385498,200.5540774609375,21.60443376385498,200.4940774609375C21.69443076385498,200.3740674609375,46.26442976385498,201.6040774609375,46.65442976385498,201.7540774609375Z" fill-rule="evenodd" fill="#424242" fill-opacity="1" style="mix-blend-mode:passthrough"/><path d="M45.254202763854984,247.9444874609375Q47.26800076385498,249.1787374609375,53.55937476385498,248.9821174609375L53.57873076385498,248.9814574609375L72.79861776385498,248.2876474609375L75.17767576385498,248.2015074609375L82.42543276385499,247.9417674609375L100.37719976385497,247.3015274609375Q123.83294576385498,246.4638174609375,128.380695763855,246.2261374609375Q134.200445763855,245.9219674609375,135.757215763855,244.7842974609375Q138.16405576385498,243.0108374609375,138.27805576385498,239.8677974609375Q138.38505576385498,236.9178474609375,136.36284576385498,234.8956474609375L134.340675763855,232.8734874609375L128.347665763855,233.1267574609375L111.19011576385498,233.7566874609375L103.08827576385498,234.0491774609375L98.74162576385498,234.2066174609375L93.86221576385498,234.3809374609375L85.83906876385498,234.6567074609375L79.01307976385498,234.9049674609375L73.96332876385497,235.1077274609375Q60.66194776385498,235.6772274609375,55.46209276385498,235.8121674609375L55.48442776385498,233.4040674609375Q55.48442776385498,227.6387774609375,55.62168776385498,225.9230674609375Q55.70474876385498,224.8848274609375,55.93390176385498,212.7390274609375Q56.09585876385498,202.7670474609375,55.84152476385498,200.6720274609375Q55.42906076385498,197.2744474609375,52.68121276385498,194.9850774609375Q50.96172976385498,193.5931274609375,49.09386376385498,193.0327774609375Q47.40295676385498,192.5254774609375,39.817431763854984,192.2382474609375L38.34694976385498,192.1709474609375L30.07995876385498,191.7588474609375L25.95336776385498,191.5569474609375L23.554690763854982,191.4281274609375L23.32540576385498,191.4177874609375L23.24884876385498,188.3486374609375L23.23338776385498,187.7126874609375L22.80568776385498,169.0001974609375L22.519642763854982,152.0594474609375L86.18938776385498,152.1440774609375Q153.94698576385497,152.2296274609375,156.98473576385499,151.8687574609375Q165.50931576385497,150.7285174609375,171.46994576385498,144.3919474609375Q174.76542576385498,140.8576774609375,176.67603576385497,135.7316574609375L177.73258576385498,132.8750374609375L177.824395763855,96.9131924609375Q177.82802576385498,95.3231964609375,177.83510576385498,92.3456574609375Q177.89455576385498,67.37239846093749,177.66506576385498,62.6621094609375Q177.41065576385498,57.4403574609375,175.761075763855,53.975671460937505Q176.11904576385498,53.9951474609375,176.48766576385498,54.015499460937505Q182.05671576385498,54.3229614609375,183.96303576385498,54.455699460937495Q184.077145763855,55.9672964609375,184.165885763855,59.2131344609375Q184.76441576385497,81.1585004609375,184.76441576385497,156.9040674609375Q184.76441576385497,203.2291874609375,184.64078576385498,218.7171474609375Q184.57265576385498,227.2519674609375,184.45015576385498,230.9892774609375Q184.43807576385498,231.3581674609375,184.42534576385498,231.6869774609375Q183.93584576385499,231.7763474609375,183.39229576385497,231.8644074609375Q178.785075763855,232.6737774609375,177.280585763855,233.7269874609375L177.279885763855,233.7260174609375Q173.11741576385498,236.7177874609375,175.18027576385498,241.5023974609375Q177.14483576385499,246.2294774609375,183.897345763855,245.1852674609375Q189.37858576385497,244.3211074609375,191.66425576385498,243.3631874609375Q194.84952576385498,242.0282474609375,196.42212576385498,239.0028974609375Q197.47622576385498,236.8946974609375,197.683815763855,226.5126374609375Q197.74444576385497,222.9764674609375,197.84644576385497,220.2921174609375Q198.23491576385499,220.2632174609375,198.65615576385497,220.2355074609375Q215.63270576385497,219.1222874609375,218.340315763855,217.9790474609375L218.39025576385498,217.9579574609375L218.43960576385498,217.9355274609375Q222.57335576385498,216.0565674609375,224.871575763855,211.8306474609375L226.03331576385497,209.6586274609375L226.12441576385498,125.2579074609375Q226.13155576385498,117.8226164609375,226.14660576385498,104.8638534609375Q226.20417576385498,55.2902604609375,225.98719576385497,46.5749284609375Q225.747275763855,36.938050460937504,223.92675576385497,33.6248494609375Q223.631235763855,33.0870324609375,223.47907576385498,32.770181660937496Q221.81037576385498,29.3010358609375,218.76253576385497,26.2955000609375Q215.715675763855,23.2057217409375,212.24741576385497,21.4935562609375Q211.96444576385497,21.3546113609375,211.46865576385497,21.0798768609375Q208.19513576385498,19.2659032609375,198.66628576385497,19.0184707609375Q190.06386576385498,18.7950949609375,141.12754576385498,18.8024480609375Q130.28571576385497,18.8040771609375,124.20441576385498,18.8040771609375Q65.43494676385498,18.8040771609375,55.05548376385498,18.8791825609375Q43.83294176385498,18.9603886609375,41.67542976385498,19.5282764609375Q33.82850976385498,21.5305957609375,28.83264976385498,27.9236001609375Q24.57954076385498,33.3661374609375,23.64576776385498,40.378212460937505L21.95949076385498,40.4360334609375Q14.38224976385498,40.672822460937496,10.03022956385498,42.7652814609375Q5.30239866385498,44.9917604609375,1.6907219638549804,49.5968304609375Q-1.9141721361450195,54.1932524609375,-2.9833912361450197,59.3474504609375Q-3.5382399361450196,62.0424114609375,-3.5530667361450194,95.8560714609375Q-3.56788153614502,129.6425974609375,-3.0237267361450195,132.5187474609375Q-0.8039055361450196,144.07319746093748,9.26706696385498,149.2524674609375L9.38504316385498,149.3122274609375L9.38519666385498,149.9322474609375L10.16528126385498,189.8365374609375Q10.37979506385498,200.2404474609375,11.56403476385498,202.1943374609375Q14.03777476385498,206.2304074609375,26.34070276385498,222.9946274609375L29.38311276385498,227.2109374609375L30.11965076385498,228.2431774609375L40.90696976385498,243.2070174609375Q43.58640176385498,246.8667474609375,45.17140876385498,247.8923474609375L45.21248576385498,247.9189274609375L45.254202763854984,247.9444874609375ZM42.64102876385498,223.1146074609375Q42.73412976385498,219.2735774609375,42.83510076385498,213.7706874609375Q42.93776976385498,208.1239174609375,42.94237776385498,205.5040174609375Q42.66979876385498,205.4881774609375,42.36081176385498,205.4705674609375Q38.84874276385498,205.2703374609375,33.81645876385498,205.0178074609375Q31.49753876385498,204.9014474609375,29.50696676385498,204.8066074609375Q32.31951276385498,208.7442674609375,37.57502276385498,216.0730474609375L42.64102876385498,223.1146074609375ZM194.31290576385499,207.4009874609375Q193.662485763855,207.4856274609375,193.35328576385498,207.5717174609375L193.393865763855,207.5599974609375Q193.868355763855,207.4281874609375,194.31290576385499,207.4009874609375ZM197.997465763855,207.0858274609375Q197.95769576385499,202.3214874609375,198.10430576385497,182.4032174609375Q198.329675763855,151.4607074609375,197.93929576385497,102.8457034609375Q197.545995763855,53.867630460937505,196.97672576385497,50.9696274609375Q195.620955763855,44.1906714609375,189.358485763855,42.006088460937505Q187.561835763855,41.3811744609375,181.97629576385498,41.157777460937496Q176.76101576385497,40.9334584609375,176.016355763855,40.8143174609375L175.70981576385498,40.765274460937505L103.30121576385498,40.4940854609375L36.94792876385498,40.3814834609375Q37.29864776385498,39.069622460937495,37.98775776385498,37.7701034609375Q39.68547376385498,34.5290064609375,42.74128676385498,33.0576194609375Q43.02690376385498,32.917984460937504,43.46860376385498,32.6843252609375Q44.86050676385498,31.9480104609375,52.99763776385498,31.7804603609375Q62.04042376385498,31.5942621609375,114.28300576385499,31.651838260937502Q121.62894576385499,31.659934060937502,125.57979576385497,31.6640748609375L202.73598576385498,31.7532691609375L204.437925763855,32.3642034609375Q211.161605763855,34.7477264609375,212.73801576385497,41.4386174609375Q213.084405763855,42.9307634609375,213.084405763855,125.0140774609375L213.084405763855,205.8444174609375Q212.01838576385498,206.0639474609375,209.01478576385497,206.3131674609375Q205.34502576385498,206.5611074609375,203.37545576385497,206.7696874609375Q201.07657576385498,206.9389174609375,198.392435763855,207.0613974609375Q198.190335763855,207.0736574609375,197.997465763855,207.0858274609375ZM87.07495376385498,139.0740774609375L87.06698176385498,139.0740774609375L18.91977576385498,138.8948174609375Q12.40268976385498,137.91429746093752,10.08437636385498,130.9956374609375Q9.734431263854981,129.98467746093752,9.734431263854981,96.1540754609375L9.734431263854981,62.3510174609375L10.18827726385498,61.0881464609375Q12.20262876385498,55.4889144609375,17.80380576385498,53.8153834609375Q18.84148676385498,53.5040814609375,87.30443076385498,53.5040814609375Q155.80774576385497,53.5040814609375,156.92783576385497,53.8201024609375Q162.826975763855,55.3865474609375,164.462015763855,61.7563474609375Q164.82593576385497,63.1624224609375,164.83317576385497,95.7424624609375Q164.840415763855,128.3957474609375,164.45321576385498,130.2959474609375Q162.89864576385497,137.5505274609375,155.61596576385497,138.8447174609375Q154.187215763855,139.1168574609375,87.07495376385498,139.0740774609375ZM98.78425076385498,125.4148574609375Q97.49885076385497,125.7634874609375,95.88881976385498,125.5334674609375Q92.71444176385498,125.1455874609375,90.84589676385498,121.3366164609375Q89.85248876385498,119.3115924609375,85.85545676385497,109.0106654609375L74.39242076385499,79.5326534609375L74.31021376385497,79.3228834609375Q71.78455676385498,72.8547474609375,71.78455676385498,71.2336734609375Q71.78455676385498,67.7681964609375,74.86885376385499,65.89738846093749Q77.60887476385498,64.2354054609375,80.64946276385498,65.2489354609375Q82.96906576385499,66.0712394609375,84.24202976385499,68.6899034609375Q84.89822676385498,70.0397914609375,87.17090876385498,75.98549246093751L89.17053476385497,81.1794664609375L90.82100176385498,85.4098584609375L91.60203076385498,87.4453814609375L93.76802376385498,93.0779804609375L101.71154576385499,113.4612424609375Q103.48455576385498,117.8293914609375,103.48455576385498,119.3236694609375Q103.48455576385498,121.2487334609375,102.05580576385498,123.1013974609375Q100.63022576385498,124.9499574609375,98.78425076385498,125.4148574609375ZM110.89849576385498,118.1757274609375Q112.77423576385497,120.1039504609375,115.65439576385498,120.1039504609375Q118.15005576385498,120.1039504609375,122.58350576385499,116.8587264609375L124.44159576385498,115.5191874609375L128.01117576385496,112.9727324609375Q129.03449576385498,112.2642974609375,131.13036576385497,110.7521974609375Q131.40699576385498,110.5526194609375,131.527905763855,110.4655534609375L137.741735763855,105.9732594609375L138.14107576385499,105.6859814609375Q144.07300576385498,101.3606264609375,144.882955763855,99.9709624609375Q147.42666576385497,95.4365764609375,143.728205763855,91.6329884609375Q142.55761576385498,90.3973464609375,136.76790576385497,86.2451404609375L130.67778576385498,81.87082646093751L125.36771576385497,78.0550114609375Q118.92093576385498,73.42504846093749,117.03583576385498,72.8639644609375L117.03611576385498,72.8629954609375Q111.59932576385498,71.3358074609375,109.50457576385499,76.4454074609375Q107.67005576385498,80.9202724609375,111.50467576385498,84.2367214609375Q112.26044576385497,84.8917124609375,120.84984576385499,91.0920104609375Q125.76872576385497,94.6274494609375,128.33389576385497,96.4877314609375Q128.33276576385498,96.4885334609375,128.331635763855,96.4893414609375Q126.61809576385498,97.7143934609375,125.98694576385498,98.1807864609375L118.96602576385499,103.2038574609375L117.45867576385498,104.2767254609375Q110.71888576385498,109.1246334609375,109.78169576385498,110.6131364609375L109.77713576385499,110.6106334609375Q107.46899576385498,114.8196484609375,110.89849576385498,118.1757274609375ZM47.62901976385498,112.6133344609375Q58.11530976385498,120.1092374609375,60.39514476385498,120.1092374609375Q62.48094876385498,120.1092374609375,63.90222476385498,119.3038864609375Q65.72234676385499,118.3086624609375,66.60749376385498,116.0414584609375Q67.44078376385498,113.9070664609375,66.94571176385499,111.9890974609375Q66.94375176385498,111.9812544609375,66.93949376385498,111.9640654609375Q66.45854476385497,110.0221714609375,63.90439176385498,108.0587764609375Q62.40223176385498,106.9040604609375,53.81589776385498,100.7801434609375L52.68931876385498,99.9766384609375Q50.10334676385498,98.1424024609375,47.78443776385498,96.4799044609375L49.56955276385498,95.1949464609375L51.41957376385498,93.8573914609375L56.01558976385498,90.5542374609375L59.65265176385498,87.9294814609375Q64.28370176385498,84.63753846093749,65.35357176385499,83.5676684609375L65.41880276385498,83.50243346093751L65.48095976385498,83.4342654609375Q67.31737776385498,81.42013946093749,67.16707876385497,78.8483814609375Q67.02593476385498,76.4331744609375,65.11597776385499,74.5234874609375Q62.05496076385498,71.5213434609375,58.43844176385498,73.0262034609375Q56.83410976385498,73.69377946093749,51.24775576385498,77.76322946093751L35.71694876385498,88.9466244609375Q30.38514276385498,92.7630764609375,30.38514276385498,96.3392414609375Q30.38514276385498,100.3109514609375,35.41903976385498,103.8833544609375L46.53507176385498,111.8293154609375L47.62901976385498,112.6133344609375ZM165.15163576385498,242.7329674609375Q168.28386576385498,240.8179174609375,168.28386576385498,237.1602774609375Q168.28386576385498,234.4325574609375,163.35325576385497,229.3751874609375L137.66286576385497,202.1475074609375L114.42366576385498,177.2677874609375Q106.62317576385497,168.8136274609375,105.14533576385499,167.4928774609375L105.14787576385498,167.4899774609375Q102.34037576385498,165.0334474609375,98.27459976385498,166.5393074609375L98.27593476385498,166.5429274609375Q96.66303576385498,167.2403974609375,91.86237576385498,173.0259574609375L75.79057576385497,192.1390274609375L73.93121576385498,194.3454774609375Q68.88486776385498,200.3051774609375,67.85003176385499,201.6820674609375Q66.08387276385498,204.0320174609375,66.08387276385498,206.1102874609375Q66.08387276385498,209.4591874609375,68.88504276385498,211.4440174609375Q71.69777176385497,213.4370274609375,74.85373176385498,212.3056374609375L75.01983976385497,212.2460974609375L75.18004876385498,212.1721474609375Q76.81946876385499,211.4155274609375,82.62804676385498,204.4214474609375L97.15494776385498,187.1087174609375L100.12702476385498,183.6303074609375L101.16565576385499,182.4064374609375L105.31835576385498,186.8909874609375L107.03370576385498,188.7438974609375L110.51414576385498,192.4618674609375L115.31187576385499,197.5919474609375Q156.14129576385497,241.2660474609375,158.96579576385497,243.1800074609375L158.95697576385498,243.2015074609375Q162.20684576385497,244.5334174609375,165.15163576385498,242.7329674609375Z" fill-rule="evenodd" fill="#424242" fill-opacity="1"/></g></g></g></svg>