<?xml version="1.0" standalone="no"?><!DOCTYPE svg PUBLIC "-//W3C//DTD SVG 20010904//EN" "http://www.w3.org/TR/2001/REC-SVG-20010904/DTD/svg10.dtd"><svg version="1.0" xmlns="http://www.w3.org/2000/svg" width="800.000000" height="800.000000" viewBox="0 0 800.000000 800.000000" preserveAspectRatio="xMidYMid meet"><g transform="translate(0.000000,800.000000) scale(0.100000,-0.100000)" fill="#000000" stroke="none"><path d="M1712 7791 c-17 -11 -66 -67 -107 -123 -80 -111 -214 -297 -359 -498 -49 -69 -106 -147 -126 -175 -91 -124 -468 -654 -487 -685 -20 -33 -21 -54 -27 -345 -21 -975 -26 -1240 -26 -1330 l0 -100 -77 -39 c-175 -90 -300 -261 -339 -464 -21 -111 -20 -2285 1 -2387 39 -188 188 -378 360 -459 104 -50 153 -59 345 -65 l175 -6 3 -45 c18 -320 218 -576 508 -650 76 -20 122 -20 2718 -20 2957 0 2709 -6 2876 76 79 39 110 62 181 134 73 72 94 101 132 180 85 177 78 -100 75 3025 l-3 2780 -23 43 c-31 57 -97 120 -152 145 -45 19 -247 41 -613 65 -76 5 -141 12 -144 16 -4 4 -10 149 -13 324 -6 300 -8 319 -28 359 -39 75 -97 99 -319 134 -97 15 -127 6 -147 -43 -17 -39 -7 -76 25 -99 14 -11 75 -26 149 -39 68 -11 129 -25 135 -31 17 -17 21 -550 21 -2599 0 -1791 -5 -2710 -20 -3260 -7 -256 -11 -269 -82 -283 -32 -6 -574 -36 -581 -32 -1 0 15 23 37 49 22 26 57 83 79 126 75 151 72 84 69 1400 l-3 1175 -27 73 c-41 110 -77 170 -146 244 -111 118 -246 187 -403 208 -59 7 -758 10 -2342 8 l-2257 -3 0 64 c0 112 19 1100 25 1261 2 85 5 176 5 201 l0 47 133 6 c72 4 170 9 217 11 47 3 193 10 325 16 132 5 257 15 277 21 20 6 53 24 74 41 66 55 66 55 59 486 -4 212 -8 406 -10 431 -2 25 -5 142 -5 260 l-2 215 53 0 c61 0 377 -11 704 -25 121 -5 299 -12 395 -15 96 -3 290 -10 430 -15 140 -5 327 -12 415 -15 274 -9 425 -15 572 -21 l142 -6 26 26 c35 35 33 100 -5 128 -26 19 -69 21 -1105 58 -159 6 -537 19 -840 30 -302 11 -626 22 -720 26 -160 5 -172 4 -203 -15z m-17 -1023 c6 -330 5 -399 -6 -403 -13 -5 -832 -46 -835 -42 -2 2 97 141 424 597 211 294 274 382 344 478 l53 74 6 -154 c4 -84 10 -332 14 -550z m5060 -93 c66 -3 143 -8 170 -10 28 -3 111 -10 185 -15 169 -14 202 -23 234 -61 l26 -31 0 -2751 c0 -2420 -2 -2760 -15 -2816 -45 -191 -173 -331 -362 -398 l-78 -28 -2595 -3 c-2862 -3 -2685 -6 -2820 60 -81 39 -174 131 -218 215 -35 66 -62 170 -62 240 l0 42 2357 4 c1297 2 2378 6 2403 9 25 4 121 9 214 13 100 4 185 13 208 21 86 30 148 104 167 199 22 112 45 2981 35 4354 -7 951 -6 973 12 968 10 -3 73 -8 139 -12z m-1409 -2276 c197 -35 358 -192 400 -388 21 -103 21 -2261 -1 -2346 -48 -187 -169 -313 -346 -360 -46 -13 -392 -15 -2355 -15 -2087 0 -2305 1 -2355 16 -164 49 -282 161 -341 325 l-23 64 0 1150 c0 1095 1 1153 19 1205 65 194 222 328 411 353 17 2 1043 5 2281 6 1568 1 2268 -2 2310 -10z"/><path d="M3349 3692 c-49 -6 -54 -16 -229 -467 -254 -655 -318 -819 -385 -990 -41 -105 -75 -204 -75 -221 0 -54 63 -92 120 -73 31 11 36 20 135 279 31 80 85 222 122 315 36 94 80 208 98 255 117 302 223 572 265 680 28 69 50 135 50 147 0 25 -34 69 -57 74 -10 3 -30 3 -44 1z"/><path d="M1799 3285 c-173 -124 -356 -255 -407 -291 -93 -66 -112 -90 -112 -143 0 -39 27 -70 122 -138 274 -197 416 -299 518 -373 232 -169 239 -172 291 -121 36 36 38 78 7 112 -13 13 -90 72 -173 131 -82 59 -206 149 -275 198 -69 50 -158 114 -197 142 -40 28 -73 52 -73 54 0 1 141 103 313 225 422 301 416 296 423 324 8 31 -12 82 -37 95 -10 6 -33 10 -52 10 -28 0 -85 -37 -348 -225z"/><path d="M3925 3485 c-26 -25 -32 -63 -15 -94 5 -10 103 -85 217 -167 114 -81 242 -173 284 -203 42 -31 109 -78 147 -106 39 -27 71 -53 72 -57 0 -9 -38 -37 -390 -290 -151 -109 -287 -208 -302 -221 -74 -64 -28 -175 61 -150 20 5 126 74 236 153 110 79 281 202 380 273 99 71 195 144 213 163 35 36 42 80 19 121 -7 12 -91 78 -187 148 -96 69 -195 141 -220 159 -25 18 -76 55 -115 82 -38 27 -121 86 -183 131 -97 71 -120 83 -153 83 -29 0 -47 -7 -64 -25z"/><path d="M5483 7623 c-11 -4 -920 -966 -1408 -1488 -66 -71 -191 -204 -276 -295 -84 -91 -186 -200 -225 -243 l-72 -79 -92 109 c-50 59 -113 133 -139 163 -64 74 -269 320 -485 578 -98 118 -189 217 -202 223 -53 19 -114 -24 -114 -81 0 -33 9 -45 230 -306 182 -216 355 -421 598 -711 78 -94 149 -174 158 -177 27 -10 79 -7 95 7 17 13 120 122 299 316 342 370 1447 1547 1632 1738 116 119 128 135 128 168 0 63 -66 103 -127 78z"/></g></svg>